<svg xmlns="http://www.w3.org/2000/svg" viewBox="0 0 1200 630" fill="none">
  <defs>
    <linearGradient id="bg" x1="0" y1="0" x2="1200" y2="630" gradientUnits="userSpaceOnUse">
      <stop offset="0%" stop-color="#0a0d1a"/>
      <stop offset="50%" stop-color="#0d1224"/>
      <stop offset="100%" stop-color="#080b1c"/>
    </linearGradient>
    <linearGradient id="accent1" x1="0" y1="0" x2="1" y2="1">
      <stop offset="0%" stop-color="#16f2b3"/>
      <stop offset="100%" stop-color="#0ea5e9"/>
    </linearGradient>
    <linearGradient id="accent2" x1="0" y1="0" x2="1" y2="1">
      <stop offset="0%" stop-color="#4285f4"/>
      <stop offset="100%" stop-color="#8228ec"/>
    </linearGradient>
    <linearGradient id="googleGrad" x1="0" y1="0" x2="1" y2="0">
      <stop offset="0%" stop-color="#4285f4"/>
      <stop offset="25%" stop-color="#ea4335"/>
      <stop offset="50%" stop-color="#fbbc05"/>
      <stop offset="75%" stop-color="#34a853"/>
      <stop offset="100%" stop-color="#4285f4"/>
    </linearGradient>
    <linearGradient id="brainGrad" x1="0" y1="0" x2="1" y2="1">
      <stop offset="0%" stop-color="#8228ec"/>
      <stop offset="50%" stop-color="#ec4899"/>
      <stop offset="100%" stop-color="#f59e0b"/>
    </linearGradient>
    <linearGradient id="podcastGrad" x1="0" y1="0" x2="0" y2="1">
      <stop offset="0%" stop-color="#16f2b3"/>
      <stop offset="100%" stop-color="#0ea5e9"/>
    </linearGradient>
    <pattern id="grid" width="40" height="40" patternUnits="userSpaceOnUse">
      <path d="M 40 0 L 0 0 0 40" fill="none" stroke="#1a1f3a" stroke-width="0.5" opacity="0.3"/>
    </pattern>
    <filter id="glow" x="-50%" y="-50%" width="200%" height="200%">
      <feGaussianBlur stdDeviation="25" result="blur"/>
      <feMerge><feMergeNode in="blur"/><feMergeNode in="SourceGraphic"/></feMerge>
    </filter>
    <filter id="softGlow" x="-30%" y="-30%" width="160%" height="160%">
      <feGaussianBlur stdDeviation="8" result="blur"/>
      <feMerge><feMergeNode in="blur"/><feMergeNode in="SourceGraphic"/></feMerge>
    </filter>
    <clipPath id="brainClip">
      <circle cx="220" cy="300" r="130"/>
    </clipPath>
  </defs>

  <!-- Background -->
  <rect width="1200" height="630" fill="url(#bg)"/>
  <rect width="1200" height="630" fill="url(#grid)"/>

  <!-- Ambient glow orbs -->
  <circle cx="220" cy="300" r="180" fill="#8228ec" opacity="0.05" filter="url(#glow)"/>
  <circle cx="700" cy="200" r="120" fill="#4285f4" opacity="0.04" filter="url(#glow)"/>
  <circle cx="950" cy="400" r="140" fill="#16f2b3" opacity="0.04" filter="url(#glow)"/>

  <!-- === LEFT: Brain / Second Brain Visualization === -->
  <g transform="translate(220, 300)">
    <!-- Outer ring -->
    <circle cx="0" cy="0" r="135" fill="none" stroke="#2a2e5a" stroke-width="1" stroke-dasharray="4 4" opacity="0.5"/>
    <circle cx="0" cy="0" r="120" fill="#0f1225" stroke="url(#brainGrad)" stroke-width="1.5" opacity="0.8"/>

    <!-- Brain icon (simplified neural network) -->
    <!-- Central node -->
    <circle cx="0" cy="0" r="12" fill="url(#brainGrad)" opacity="0.8"/>
    <circle cx="0" cy="0" r="6" fill="#0d1224"/>

    <!-- Neural connections radiating outward -->
    <!-- Top nodes -->
    <line x1="0" y1="-12" x2="-30" y2="-55" stroke="#8228ec" stroke-width="1" opacity="0.6"/>
    <line x1="0" y1="-12" x2="10" y2="-60" stroke="#ec4899" stroke-width="1" opacity="0.5"/>
    <line x1="0" y1="-12" x2="40" y2="-45" stroke="#8228ec" stroke-width="1" opacity="0.6"/>
    <circle cx="-30" cy="-55" r="6" fill="#8228ec" opacity="0.6"/>
    <circle cx="10" cy="-60" r="5" fill="#ec4899" opacity="0.5"/>
    <circle cx="40" cy="-45" r="6" fill="#8228ec" opacity="0.6"/>

    <!-- Left nodes -->
    <line x1="-12" y1="0" x2="-60" y2="-20" stroke="#f59e0b" stroke-width="1" opacity="0.5"/>
    <line x1="-12" y1="0" x2="-55" y2="25" stroke="#ec4899" stroke-width="1" opacity="0.6"/>
    <circle cx="-60" cy="-20" r="5" fill="#f59e0b" opacity="0.5"/>
    <circle cx="-55" cy="25" r="6" fill="#ec4899" opacity="0.5"/>

    <!-- Right nodes -->
    <line x1="12" y1="0" x2="55" y2="-15" stroke="#16f2b3" stroke-width="1" opacity="0.6"/>
    <line x1="12" y1="0" x2="60" y2="30" stroke="#4285f4" stroke-width="1" opacity="0.5"/>
    <circle cx="55" cy="-15" r="5" fill="#16f2b3" opacity="0.6"/>
    <circle cx="60" cy="30" r="6" fill="#4285f4" opacity="0.5"/>

    <!-- Bottom nodes -->
    <line x1="0" y1="12" x2="-25" y2="55" stroke="#f59e0b" stroke-width="1" opacity="0.5"/>
    <line x1="0" y1="12" x2="20" y2="50" stroke="#16f2b3" stroke-width="1" opacity="0.6"/>
    <line x1="0" y1="12" x2="-5" y2="65" stroke="#8228ec" stroke-width="1" opacity="0.4"/>
    <circle cx="-25" cy="55" r="5" fill="#f59e0b" opacity="0.5"/>
    <circle cx="20" cy="50" r="6" fill="#16f2b3" opacity="0.5"/>
    <circle cx="-5" cy="65" r="4" fill="#8228ec" opacity="0.4"/>

    <!-- Secondary connections (between outer nodes) -->
    <line x1="-30" y1="-55" x2="10" y2="-60" stroke="#2a2e5a" stroke-width="0.5" opacity="0.4"/>
    <line x1="10" y1="-60" x2="40" y2="-45" stroke="#2a2e5a" stroke-width="0.5" opacity="0.4"/>
    <line x1="40" y1="-45" x2="55" y2="-15" stroke="#2a2e5a" stroke-width="0.5" opacity="0.4"/>
    <line x1="55" y1="-15" x2="60" y2="30" stroke="#2a2e5a" stroke-width="0.5" opacity="0.4"/>
    <line x1="60" y1="30" x2="20" y2="50" stroke="#2a2e5a" stroke-width="0.5" opacity="0.4"/>
    <line x1="20" y1="50" x2="-25" y2="55" stroke="#2a2e5a" stroke-width="0.5" opacity="0.4"/>
    <line x1="-25" y1="55" x2="-55" y2="25" stroke="#2a2e5a" stroke-width="0.5" opacity="0.4"/>
    <line x1="-55" y1="25" x2="-60" y2="-20" stroke="#2a2e5a" stroke-width="0.5" opacity="0.4"/>
    <line x1="-60" y1="-20" x2="-30" y2="-55" stroke="#2a2e5a" stroke-width="0.5" opacity="0.4"/>

    <!-- Pulse rings -->
    <circle cx="0" cy="0" r="85" fill="none" stroke="#8228ec" stroke-width="0.5" opacity="0.2" stroke-dasharray="2 6"/>
    <circle cx="0" cy="0" r="100" fill="none" stroke="#ec4899" stroke-width="0.5" opacity="0.15" stroke-dasharray="3 8"/>

    <!-- Label -->
    <text x="0" y="105" font-family="monospace" font-size="11" fill="#8228ec" text-anchor="middle" font-weight="bold" opacity="0.8">SECOND BRAIN</text>
  </g>

  <!-- === Input Documents (feeding into brain) === -->
  <!-- PDF icons flowing into brain -->
  <g transform="translate(35, 145)">
    <!-- PDF 1 -->
    <rect x="0" y="0" width="42" height="52" rx="4" fill="#1a1443" stroke="#ea4335" stroke-width="1" opacity="0.7"/>
    <text x="21" y="22" font-family="sans-serif" font-size="8" fill="#ea4335" text-anchor="middle" font-weight="bold">PDF</text>
    <rect x="8" y="30" width="26" height="3" rx="1.5" fill="#2a2e5a"/>
    <rect x="8" y="37" width="20" height="3" rx="1.5" fill="#2a2e5a"/>
    <rect x="8" y="44" width="23" height="3" rx="1.5" fill="#2a2e5a"/>
    <!-- Arrow to brain -->
    <line x1="46" y1="26" x2="80" y2="80" stroke="#ea4335" stroke-width="0.8" stroke-dasharray="3 3" opacity="0.4"/>
  </g>

  <g transform="translate(52, 80)">
    <!-- PDF 2 -->
    <rect x="0" y="0" width="38" height="48" rx="4" fill="#1a1443" stroke="#4285f4" stroke-width="1" opacity="0.6"/>
    <text x="19" y="20" font-family="sans-serif" font-size="8" fill="#4285f4" text-anchor="middle" font-weight="bold">DOC</text>
    <rect x="7" y="28" width="24" height="3" rx="1.5" fill="#2a2e5a"/>
    <rect x="7" y="35" width="18" height="3" rx="1.5" fill="#2a2e5a"/>
    <line x1="42" y1="24" x2="95" y2="130" stroke="#4285f4" stroke-width="0.8" stroke-dasharray="3 3" opacity="0.3"/>
  </g>

  <g transform="translate(20, 420)">
    <!-- Paper -->
    <rect x="0" y="0" width="40" height="50" rx="4" fill="#1a1443" stroke="#34a853" stroke-width="1" opacity="0.6"/>
    <text x="20" y="18" font-family="sans-serif" font-size="7" fill="#34a853" text-anchor="middle" font-weight="bold">Paper</text>
    <rect x="7" y="26" width="26" height="3" rx="1.5" fill="#2a2e5a"/>
    <rect x="7" y="33" width="20" height="3" rx="1.5" fill="#2a2e5a"/>
    <rect x="7" y="40" width="22" height="3" rx="1.5" fill="#2a2e5a"/>
    <line x1="44" y1="25" x2="90" y2="-20" stroke="#34a853" stroke-width="0.8" stroke-dasharray="3 3" opacity="0.3"/>
  </g>

  <!-- === CENTER: NotebookLM UI mockup === -->
  <g transform="translate(420, 80)">
    <rect x="0" y="0" width="360" height="380" rx="12" fill="#0f1225" stroke="#2a2e5a" stroke-width="1"/>

    <!-- Title bar -->
    <rect x="0" y="0" width="360" height="32" rx="12" fill="#0a0d1a"/>
    <rect x="0" y="12" width="360" height="20" fill="#0a0d1a"/>
    <circle cx="18" cy="16" r="5" fill="#ef4444" opacity="0.7"/>
    <circle cx="34" cy="16" r="5" fill="#f59e0b" opacity="0.7"/>
    <circle cx="50" cy="16" r="5" fill="#22c55e" opacity="0.7"/>

    <!-- Google colors bar -->
    <rect x="70" y="10" width="8" height="12" rx="2" fill="#4285f4" opacity="0.8"/>
    <rect x="80" y="10" width="8" height="12" rx="2" fill="#ea4335" opacity="0.8"/>
    <rect x="90" y="10" width="8" height="12" rx="2" fill="#fbbc05" opacity="0.8"/>
    <rect x="100" y="10" width="8" height="12" rx="2" fill="#34a853" opacity="0.8"/>
    <text x="116" y="20" font-family="sans-serif" font-size="10" fill="#8892b0">NotebookLM</text>

    <!-- Sidebar: Sources -->
    <rect x="10" y="42" width="100" height="325" rx="6" fill="#0a0d1a" stroke="#1a1f3a" stroke-width="0.5"/>
    <text x="60" y="60" font-family="sans-serif" font-size="9" fill="#8892b0" text-anchor="middle" font-weight="bold">Sources (5)</text>

    <!-- Source items -->
    <rect x="18" y="70" width="84" height="22" rx="4" fill="#1a1443" opacity="0.6"/>
    <rect x="24" y="76" width="8" height="10" rx="1" fill="#ea4335" opacity="0.6"/>
    <text x="38" y="85" font-family="sans-serif" font-size="7" fill="#8892b0">flutter_3.22.pdf</text>

    <rect x="18" y="98" width="84" height="22" rx="4" fill="#1a1443" opacity="0.6"/>
    <rect x="24" y="104" width="8" height="10" rx="1" fill="#4285f4" opacity="0.6"/>
    <text x="38" y="113" font-family="sans-serif" font-size="7" fill="#8892b0">nextjs_actions.pdf</text>

    <rect x="18" y="126" width="84" height="22" rx="4" fill="#1a1443" opacity="0.6"/>
    <rect x="24" y="132" width="8" height="10" rx="1" fill="#34a853" opacity="0.6"/>
    <text x="38" y="141" font-family="sans-serif" font-size="7" fill="#8892b0">wastewater.pdf</text>

    <rect x="18" y="154" width="84" height="22" rx="4" fill="#1a1443" opacity="0.5"/>
    <rect x="24" y="160" width="8" height="10" rx="1" fill="#fbbc05" opacity="0.6"/>
    <text x="38" y="169" font-family="sans-serif" font-size="7" fill="#8892b0">pipefit_notes.md</text>

    <rect x="18" y="182" width="84" height="22" rx="4" fill="#1a1443" opacity="0.5"/>
    <rect x="24" y="188" width="8" height="10" rx="1" fill="#8228ec" opacity="0.6"/>
    <text x="38" y="197" font-family="sans-serif" font-size="7" fill="#8892b0">research_10.pdf</text>

    <!-- Audio Overview button -->
    <rect x="18" y="230" width="84" height="30" rx="15" fill="#1a1443" stroke="#16f2b3" stroke-width="1" opacity="0.8"/>
    <text x="60" y="248" font-family="sans-serif" font-size="8" fill="#16f2b3" text-anchor="middle" font-weight="bold">Audio Overview</text>

    <!-- Main area: Chat interface -->
    <rect x="120" y="42" width="230" height="325" rx="6" fill="#0a0d1a" stroke="#1a1f3a" stroke-width="0.5"/>

    <!-- Chat messages -->
    <!-- User question -->
    <rect x="170" y="55" width="170" height="36" rx="10" fill="#1a1443" stroke="#2a2e5a" stroke-width="0.5"/>
    <text x="180" y="70" font-family="sans-serif" font-size="8" fill="#8892b0">What affects my existing</text>
    <text x="180" y="82" font-family="sans-serif" font-size="8" fill="#8892b0">Flutter projects?</text>

    <!-- AI response -->
    <rect x="130" y="100" width="200" height="85" rx="10" fill="#0f1225" stroke="#4285f4" stroke-width="0.5"/>
    <circle cx="142" cy="112" r="6" fill="#4285f4" opacity="0.5"/>
    <text x="153" y="115" font-family="sans-serif" font-size="7" fill="#4285f4" font-weight="bold">NotebookLM</text>

    <text x="138" y="130" font-family="sans-serif" font-size="7.5" fill="#c8cee0">Based on your sources, 3 breaking</text>
    <text x="138" y="142" font-family="sans-serif" font-size="7.5" fill="#c8cee0">changes affect your projects:</text>
    <text x="138" y="156" font-family="sans-serif" font-size="7.5" fill="#16f2b3">1. Material 3 migration [p.12]</text>
    <text x="138" y="168" font-family="sans-serif" font-size="7.5" fill="#16f2b3">2. Dart 3.4 null safety [p.28]</text>
    <text x="138" y="180" font-family="sans-serif" font-size="7.5" fill="#16f2b3">3. Impeller renderer [p.45]</text>

    <!-- Second user question -->
    <rect x="180" y="195" width="160" height="30" rx="10" fill="#1a1443" stroke="#2a2e5a" stroke-width="0.5"/>
    <text x="190" y="214" font-family="sans-serif" font-size="8" fill="#8892b0">Compare wastewater methods</text>

    <!-- AI comparison table response -->
    <rect x="130" y="234" width="210" height="90" rx="10" fill="#0f1225" stroke="#4285f4" stroke-width="0.5"/>
    <circle cx="142" cy="246" r="6" fill="#4285f4" opacity="0.5"/>
    <text x="153" y="249" font-family="sans-serif" font-size="7" fill="#4285f4" font-weight="bold">NotebookLM</text>

    <!-- Mini table -->
    <rect x="138" y="258" width="190" height="12" rx="2" fill="#1a1443"/>
    <text x="145" y="267" font-family="monospace" font-size="6.5" fill="#8892b0">Method</text>
    <text x="210" y="267" font-family="monospace" font-size="6.5" fill="#8892b0">Efficiency</text>
    <text x="275" y="267" font-family="monospace" font-size="6.5" fill="#8892b0">Cost</text>

    <text x="145" y="281" font-family="monospace" font-size="6.5" fill="#c8cee0">Activated Sludge</text>
    <text x="218" y="281" font-family="monospace" font-size="6.5" fill="#16f2b3">92%</text>
    <text x="275" y="281" font-family="monospace" font-size="6.5" fill="#f59e0b">High</text>

    <text x="145" y="293" font-family="monospace" font-size="6.5" fill="#c8cee0">Membrane Bio</text>
    <text x="218" y="293" font-family="monospace" font-size="6.5" fill="#16f2b3">98%</text>
    <text x="275" y="293" font-family="monospace" font-size="6.5" fill="#ea4335">V.High</text>

    <text x="145" y="305" font-family="monospace" font-size="6.5" fill="#c8cee0">Constructed Wetl.</text>
    <text x="218" y="305" font-family="monospace" font-size="6.5" fill="#16f2b3">78%</text>
    <text x="275" y="305" font-family="monospace" font-size="6.5" fill="#34a853">Low</text>

    <text x="145" y="317" font-family="monospace" font-size="6.5" fill="#4285f4">Source: wastewater.pdf [p.3-7]</text>

    <!-- Chat input -->
    <rect x="128" y="340" width="214" height="22" rx="11" fill="#1a1443" stroke="#2a2e5a" stroke-width="0.5"/>
    <text x="140" y="355" font-family="sans-serif" font-size="8" fill="#4a5578">Ask about your sources...</text>
  </g>

  <!-- === RIGHT: Podcast / Audio waveform === -->
  <g transform="translate(850, 120)">
    <!-- Headphone icon -->
    <rect x="50" y="0" width="200" height="140" rx="12" fill="#0f1225" stroke="#16f2b3" stroke-width="1" opacity="0.6"/>

    <!-- Podcast label -->
    <text x="150" y="24" font-family="sans-serif" font-size="10" fill="#16f2b3" text-anchor="middle" font-weight="bold">Audio Overview</text>

    <!-- Waveform visualization -->
    <g transform="translate(70, 40)">
      <rect x="0" y="30" width="4" height="20" rx="2" fill="#16f2b3" opacity="0.4"/>
      <rect x="8" y="22" width="4" height="36" rx="2" fill="#16f2b3" opacity="0.5"/>
      <rect x="16" y="12" width="4" height="56" rx="2" fill="#16f2b3" opacity="0.7"/>
      <rect x="24" y="18" width="4" height="44" rx="2" fill="#0ea5e9" opacity="0.8"/>
      <rect x="32" y="5" width="4" height="70" rx="2" fill="#16f2b3" opacity="0.9"/>
      <rect x="40" y="15" width="4" height="50" rx="2" fill="#0ea5e9" opacity="0.7"/>
      <rect x="48" y="25" width="4" height="30" rx="2" fill="#16f2b3" opacity="0.6"/>
      <rect x="56" y="8" width="4" height="64" rx="2" fill="#16f2b3" opacity="0.8"/>
      <rect x="64" y="20" width="4" height="40" rx="2" fill="#0ea5e9" opacity="0.6"/>
      <rect x="72" y="10" width="4" height="60" rx="2" fill="#16f2b3" opacity="0.9"/>
      <rect x="80" y="22" width="4" height="36" rx="2" fill="#0ea5e9" opacity="0.5"/>
      <rect x="88" y="28" width="4" height="24" rx="2" fill="#16f2b3" opacity="0.4"/>
      <rect x="96" y="15" width="4" height="50" rx="2" fill="#16f2b3" opacity="0.7"/>
      <rect x="104" y="20" width="4" height="40" rx="2" fill="#0ea5e9" opacity="0.6"/>
      <rect x="112" y="8" width="4" height="64" rx="2" fill="#16f2b3" opacity="0.8"/>
      <rect x="120" y="25" width="4" height="30" rx="2" fill="#0ea5e9" opacity="0.5"/>
      <rect x="128" y="18" width="4" height="44" rx="2" fill="#16f2b3" opacity="0.6"/>
      <rect x="136" y="30" width="4" height="20" rx="2" fill="#16f2b3" opacity="0.4"/>
      <rect x="144" y="22" width="4" height="36" rx="2" fill="#0ea5e9" opacity="0.5"/>
      <rect x="152" y="12" width="4" height="56" rx="2" fill="#16f2b3" opacity="0.7"/>
      <rect x="160" y="28" width="4" height="24" rx="2" fill="#16f2b3" opacity="0.4"/>
    </g>

    <!-- Playback time -->
    <text x="85" y="120" font-family="monospace" font-size="10" fill="#8892b0">05:23</text>
    <text x="190" y="120" font-family="monospace" font-size="10" fill="#4a5578">15:00</text>

    <!-- Progress bar -->
    <rect x="70" y="127" width="160" height="3" rx="1.5" fill="#1a1f3a"/>
    <rect x="70" y="127" width="57" height="3" rx="1.5" fill="url(#podcastGrad)"/>
    <circle cx="127" cy="128.5" r="5" fill="#16f2b3" opacity="0.8"/>
  </g>

  <!-- === RIGHT: Stats boxes === -->
  <g transform="translate(850, 290)">
    <!-- Stat 1: 100 pages -->
    <rect x="0" y="0" width="140" height="65" rx="10" fill="#0f1225" stroke="#2a2e5a" stroke-width="1"/>
    <text x="70" y="28" font-family="monospace" font-size="24" fill="#16f2b3" text-anchor="middle" font-weight="bold">100</text>
    <text x="70" y="48" font-family="sans-serif" font-size="9" fill="#8892b0" text-anchor="middle">pages in 15 min</text>

    <!-- Stat 2: 30s comparison table -->
    <rect x="155" y="0" width="140" height="65" rx="10" fill="#0f1225" stroke="#2a2e5a" stroke-width="1"/>
    <text x="225" y="28" font-family="monospace" font-size="24" fill="#ec4899" text-anchor="middle" font-weight="bold">30s</text>
    <text x="225" y="48" font-family="sans-serif" font-size="9" fill="#8892b0" text-anchor="middle">comparison table</text>

    <!-- Stat 3: 0 Hallucination -->
    <rect x="0" y="80" width="140" height="65" rx="10" fill="#0f1225" stroke="#2a2e5a" stroke-width="1"/>
    <text x="70" y="108" font-family="monospace" font-size="24" fill="#f59e0b" text-anchor="middle" font-weight="bold">0</text>
    <text x="70" y="128" font-family="sans-serif" font-size="9" fill="#8892b0" text-anchor="middle">hallucinations</text>

    <!-- Stat 4: Grounded AI -->
    <rect x="155" y="80" width="140" height="65" rx="10" fill="#0f1225" stroke="#2a2e5a" stroke-width="1"/>
    <text x="225" y="105" font-family="monospace" font-size="13" fill="#4285f4" text-anchor="middle" font-weight="bold">Grounded</text>
    <text x="225" y="128" font-family="sans-serif" font-size="9" fill="#8892b0" text-anchor="middle">AI accuracy</text>
  </g>

  <!-- === BOTTOM: Noise vs Signal === -->
  <g transform="translate(420, 490)">
    <rect x="0" y="0" width="360" height="48" rx="24" fill="#0f1225" stroke="#2a2e5a" stroke-width="1"/>

    <!-- Noise (crossed out) -->
    <text x="80" y="20" font-family="monospace" font-size="12" fill="#ef4444" text-anchor="middle" opacity="0.5">Noise</text>
    <line x1="55" y1="17" x2="105" y2="17" stroke="#ef4444" stroke-width="1.5" opacity="0.6"/>

    <!-- Arrow -->
    <text x="145" y="20" font-family="sans-serif" font-size="14" fill="#4a5578" text-anchor="middle">=&gt;</text>

    <!-- Signal (highlighted) -->
    <text x="220" y="20" font-family="monospace" font-size="12" fill="#16f2b3" text-anchor="middle" font-weight="bold" filter="url(#softGlow)">Signal</text>

    <text x="180" y="40" font-family="monospace" font-size="9" fill="#8892b0" text-anchor="middle">Filter information, focus on what matters</text>
  </g>

  <!-- Top accent line (Google colors) -->
  <rect x="0" y="0" width="300" height="3" fill="#4285f4" opacity="0.5"/>
  <rect x="300" y="0" width="300" height="3" fill="#ea4335" opacity="0.5"/>
  <rect x="600" y="0" width="300" height="3" fill="#fbbc05" opacity="0.5"/>
  <rect x="900" y="0" width="300" height="3" fill="#34a853" opacity="0.5"/>

  <!-- Tag badges bottom-left -->
  <g transform="translate(60, 570)">
    <rect x="0" y="0" width="40" height="26" rx="13" fill="#4285f4" opacity="0.12"/>
    <text x="20" y="17" font-family="monospace" font-size="10" fill="#4285f4" text-anchor="middle">AI</text>

    <rect x="50" y="0" width="100" height="26" rx="13" fill="#34a853" opacity="0.12"/>
    <text x="100" y="17" font-family="monospace" font-size="10" fill="#34a853" text-anchor="middle">NotebookLM</text>

    <rect x="160" y="0" width="90" height="26" rx="13" fill="#f59e0b" opacity="0.12"/>
    <text x="205" y="17" font-family="monospace" font-size="10" fill="#f59e0b" text-anchor="middle">Research</text>

    <rect x="260" y="0" width="90" height="26" rx="13" fill="#ec4899" opacity="0.12"/>
    <text x="305" y="17" font-family="monospace" font-size="10" fill="#ec4899" text-anchor="middle">MonStudio</text>
  </g>
</svg>